# xmcd
#
# Track frame offsets: 
#        150
#        18435
#        40210
#        54210
#        67777
#        79032
#        90547
#        103420
#        116430
#        128687
#        140752
#        156912
#        173485
#        188767
#        204007
#        221127
#        234505
#        250060
#
# Disc length: 3506 seconds
#
# Revision: 4
# Processed by: cddbd v1.5.2PL0 Copyright (c) Steve Scherf et al.
# Submitted via: ExactAudioCopy v0.99pb3
#
DISCID=e80db012
DTITLE=Frank Sinatra - Selection of Frank Sinatra - CD 2 (Romantic)
DYEAR=1997
DGENRE=Swing
TTITLE0=Night and Day
TTITLE1=Blues In The Night
TTITLE2=Three Coins In The Fountain
TTITLE3=From Here To Eternity
TTITLE4=I Love You
TTITLE5=My Funny Valentine
TTITLE6=April In Paris
TTITLE7=Autumn Leaves
TTITLE8=Pennies From Heaven
TTITLE9=Love Is Here To Stay
TTITLE10=Something
TTITLE11=My Way
TTITLE12=Stormy Weather
TTITLE13=Around The World
TTITLE14=Everybody Loves Somebody
TTITLE15=Dream
TTITLE16=Sentimental Journey
TTITLE17=All The Way
EXTD=
EXTT0=
EXTT1=
EXTT2=
EXTT3=
EXTT4=
EXTT5=
EXTT6=
EXTT7=
EXTT8=
EXTT9=
EXTT10=
EXTT11=
EXTT12=
EXTT13=
EXTT14=
EXTT15=
EXTT16=
EXTT17=
PLAYORDER=
